{"asset":{"version":"2.0","generator":"Blockbench 4.10.4 glTF exporter"},"scenes":[{"nodes":[1],"name":"blockbench_export"}],"scene":0,"nodes":[{"name":"bone"},{"translation":[-0.125,-0.125,0.3125],"name":"bone","mesh":0,"children":[0],"skin":0}],"bufferViews":[{"buffer":0,"byteOffset":0,"byteLength":2112,"target":34962,"byteStride":12},{"buffer":0,"byteOffset":2112,"byteLength":2112,"target":34962,"byteStride":12},{"buffer":0,"byteOffset":4224,"byteLength":1408,"target":34962,"byteStride":8},{"buffer":0,"byteOffset":5632,"byteLength":1408,"target":34962,"byteStride":8},{"buffer":0,"byteOffset":7040,"byteLength":2816,"target":34962,"byteStride":16},{"buffer":0,"byteOffset":9856,"byteLength":528,"target":34963},{"buffer":0,"byteOffset":10384,"byteLength":64}],"buffers":[{"byteLength":10448,"uri":"data:application/octet-stream;base64,"}],"accessors":[{"bufferView":0,"componentType":5126,"count":176,"max":[0.5249999761581421,2.325000047683716,0.6525209546089172],"min":[-0.2750000059604645,1.399999976158142,-1.237748622894287],"type":"VEC3"},{"bufferView":1,"componentType":5126,"count":176,"max":[0.258819043636322,0.7660444378852844,1],"min":[-1,-1,-0.7660444378852844],"type":"VEC3"},{"bufferView":2,"componentType":5126,"count":176,"max":[0.703125,0.703125],"min":[0,0],"type":"VEC2"},{"bufferView":3,"componentType":5123,"count":176,"max":[0,0,0,0],"min":[0,0,0,0],"type":"VEC4"},{"bufferView":4,"componentType":5126,"count":176,"max":[0,1,0,0],"min":[0,1,0,0],"type":"VEC4"},{"bufferView":5,"componentType":5123,"count":264,"max":[175],"min":[0],"type":"SCALAR"},{"bufferView":6,"componentType":5126,"count":1,"max":[1,0,0,0,0,1,0,0,0,0,1,0,0,0,0,1],"min":[1,0,0,0,0,1,0,0,0,0,1,0,0,0,0,1],"type":"MAT4"}],"materials":[{"pbrMetallicRoughness":{"metallicFactor":0,"roughnessFactor":1,"baseColorTexture":{"index":0}},"alphaMode":"MASK","alphaCutoff":0.05,"doubleSided":true}],"textures":[{"sampler":0,"source":0,"name":"texture"}],"samplers":[{"magFilter":9728,"minFilter":9728,"wrapS":33071,"wrapT":33071}],"images":[{"mimeType":"image/png","uri":"data:image/png;base64,"}],"meshes":[{"primitives":[{"mode":4,"attributes":{"POSITION":0,"NORMAL":1,"TEXCOORD_0":2,"JOINTS_0":3,"WEIGHTS_0":4},"indices":5,"material":0}]}],"skins":[{"inverseBindMatrices":6,"joints":[0],"skeleton":0}]}